<?xml version="1.0"?>
<svg xmlns="http://www.w3.org/2000/svg" height="512px" viewBox="1 -25 511.99963 511" width="512px" class=""><g><path d="m502.511719 357.480469-185.898438-321.984375c-12.652343-21.914063-35.3125-34.996094-60.613281-34.996094-25.304688 0-47.960938 13.082031-60.613281 34.996094l-185.898438 321.984375c-12.652343 21.914062-12.652343 48.078125 0 69.992187 12.652344 21.910156 35.3125 34.992188 60.613281 34.992188h371.796876c25.304687 0 47.960937-13.082032 60.613281-34.992188 12.652343-21.914062 12.652343-48.078125 0-69.992187zm-17.316407 59.992187c-9.035156 15.652344-25.222656 24.996094-43.296874 24.996094h-371.796876c-18.074218 0-34.257812-9.34375-43.292968-24.996094-9.039063-15.652344-9.039063-34.339844 0-49.992187l185.898437-321.988281c9.035157-15.652344 25.21875-24.996094 43.292969-24.996094s34.257812 9.34375 43.296875 24.996094l185.898437 321.988281c9.035157 15.652343 9.035157 34.339843 0 49.992187zm0 0" data-original="#000000" class="active-path" data-old_color="#000000" fill="#FFFFFF"/><path d="m281.789062 55.382812c-5.382812-9.316406-15.019531-14.878906-25.785156-14.878906-10.769531 0-20.414062 5.5625-25.792968 14.882813l-.410157.710937c-2.757812 4.78125-1.121093 10.894532 3.664063 13.65625 4.78125 2.757813 10.894531 1.121094 13.65625-3.664062l.410156-.707032c2.328125-4.035156 5.894531-4.882812 8.472656-4.882812s6.136719.847656 8.46875 4.882812l186.082032 322.316407c2.324218 4.027343 1.273437 7.550781.007812 9.765625-1.296875 2.230468-3.8125 4.894531-8.472656 4.894531h-372.179688c-4.660156 0-7.179687-2.664063-8.449218-4.859375-1.292969-2.25-2.339844-5.773438-.015626-9.800781l140.867188-243.992188c2.761719-4.78125 1.121094-10.898437-3.660156-13.65625-4.78125-2.761719-10.898438-1.125-13.660156 3.65625l-140.863282 243.992188c-7.734375 13.394531-2.585937 25.269531.003906 29.785156 5.394532 9.3125 15.03125 14.871094 25.777344 14.871094h372.175782c10.75 0 20.386718-5.558594 25.796874-14.90625 2.574219-4.480469 7.722657-16.355469-.011718-29.75zm0 0" data-original="#000000" class="active-path" data-old_color="#000000" fill="#FFFFFF"/><path d="m371.515625 380.835938c5.523437 0 10-4.476563 10-9.996094v-44.414063c0-5.523437-4.476563-10-10-10h-108.839844c-8.933593 0-16.199219 7.269531-16.199219 16.234375 0 2.464844-2.007812 4.472656-4.476562 4.472656-.59375 0-1.171875-.113281-1.71875-.339843-.535156-.21875-1.019531-.546875-1.445312-.972657-.734376-.734374-1.582032-1.351562-2.507813-1.828124l-11.035156-5.65625c-2.84375-2.253907-6.34375-3.476563-10.039063-3.476563h-15.261718c-.6875-2.875-2.152344-5.507813-4.273438-7.628906-3.054688-3.085938-7.132812-4.78125-11.480469-4.78125h-43.945312c-5.523438 0-10 4.472656-10 9.996093v48.394532c0 5.523437 4.476562 9.996094 10 9.996094h141.207031c5.519531 0 9.996094-4.472657 9.996094-9.996094 0-5.523438-4.476563-10-9.996094-10h-131.210938v-28.394532h30.597657c1.710937 7.109376 8.125 12.410157 15.753906 12.410157h17.25c.382813.269531.78125.511719 1.191406.722656l10.90625 5.589844c1.988281 1.71875 4.214844 3.097656 6.648438 4.105469 2.980469 1.230468 6.132812 1.859374 9.363281 1.859374 12.207031 0 22.351562-8.984374 24.179688-20.707031h95.339843v34.414063c0 5.519531 4.476563 9.996094 9.996094 9.996094zm0 0" data-original="#000000" class="active-path" data-old_color="#000000" fill="#FFFFFF"/><path d="m323.757812 361.226562c-3.953124 1.140626-6.886718 4.691407-7.214843 8.800782-.332031 4.171875 2.023437 8.183594 5.835937 9.914062 3.75 1.699219 8.28125.875 11.199219-2.03125 3.335937-3.328125 3.84375-8.707031 1.238281-12.617187-2.347656-3.589844-6.949218-5.246094-11.058594-4.066407zm0 0" data-original="#000000" class="active-path" data-old_color="#000000" fill="#FFFFFF"/><path d="m217.414062 108.375c4.183594-.214844 7.847657-3.082031 9.074219-7.082031 1.199219-3.914063-.214843-8.347657-3.476562-10.828125-3.472657-2.640625-8.351563-2.722656-11.90625-.195313-3.738281 2.65625-5.167969 7.71875-3.40625 11.941407 1.574219 3.851562 5.554687 6.382812 9.714843 6.164062zm0 0" data-original="#000000" class="active-path" data-old_color="#000000" fill="#FFFFFF"/><path d="m328.375 232.824219c-1.65625-9.007813-9.886719-15.183594-18.828125-14.480469l-4.726563-11.644531c-5.308593-13.074219-16.496093-22.429688-29.527343-25.871094-6.074219-1.605469-12.546875-1.929687-19.019531-.742187l-20.324219 3.75c-2.902344.53125-5.6875 1.359374-8.347657 2.429687-16 6.4375-27.148437 21.992187-27.527343 39.730469l-.261719 12.566406c-.085938.023438-.160156.058594-.242188.085938-.347656.105468-.6875.226562-1.027343.355468-.199219.074219-.394531.152344-.589844.234375-.050781.019531-.109375.039063-.160156.0625-.085938.039063-.164063.082031-.246094.121094-7.269531 3.28125-11.671875 11.195313-10.164063 19.378906l4.855469 26.355469c.859375 4.664062 3.480469 8.710938 7.386719 11.402344 2.992188 2.0625 6.46875 3.136718 10.027344 3.136718 1.082031 0 2.167968-.101562 3.253906-.300781l9.144531-1.683593 1.214844 6.59375c.886719 4.820312 5.089844 8.191406 9.820313 8.191406.601562 0 1.210937-.054688 1.824218-.167969 5.429688-1 9.019532-6.214844 8.019532-11.644531l-1.214844-6.59375 48.722656-8.976563 1.214844 6.59375c.886718 4.820313 5.09375 8.1875 9.820312 8.1875.601563 0 1.210938-.054687 1.824219-.164062 5.429687-1 9.019531-6.214844 8.019531-11.644531l-1.214844-6.597657 8.894532-1.636719c9.621094-1.773437 16.007812-11.042968 14.234375-20.667968zm-108.300781-6.402344c.191406-9.136719 5.644531-17.210937 13.609375-21.011719 1.839844-.878906 3.816406-1.523437 5.890625-1.90625l9.230469-1.703125 11.097656-2.046875c6.839844-1.261718 14.183594.652344 19.511718 5.128906 2.589844 2.175782 4.765626 4.855469 6.238282 7.917969.695312 1.449219 1.265625 2.964844 1.871094 4.457031.632812 1.554688 1.261718 3.113282 1.894531 4.667969l-69.523438 12.988281zm8.191406 49.808594c-.003906 0-.003906 0-.003906.003906-.003907 0-.003907 0-.007813 0l-16.757812 3.085937-4.007813-21.746093 101.617188-18.984375 4.054687 22zm0 0" data-original="#000000" class="active-path" data-old_color="#000000" fill="#FFFFFF"/></g> </svg>
